<svg fill="currentColor" viewBox="0 0 24 24" width="1em" height="1em" class="a8c37x1j ms05siws l3qrxjdp b7h9ocf4 fxtw5amg rgmg9uty b73ngqbp">
  <g fill-rule="evenodd">
    <path d="M23.029 5.014c-.363-.088-.746.014-1.048.234l-2.57 1.88a.999.999 0 0 0-.411.807v8.13a1 1 0 0 0 .41.808l2.602 1.901c.219.16.477.242.737.242.253 0 .508-.077.732-.235.34-.239.519-.65.519-1.065V6.235a1.25 1.25 0 0 0-.971-1.22m-20.15 6.563C2.979 11.432 5.354 8 8.749 8c3.396 0 5.771 3.432 5.87 3.578a.749.749 0 0 1 0 .844C14.52 12.568 12.145 16 8.749 16c-3.395 0-5.77-3.432-5.87-3.578a.749.749 0 0 1 0-.844zM13.75 21.5a3.754 3.754 0 0 0 3.75-3.75V6.25a3.754 3.754 0 0 0-3.75-3.75h-10A3.754 3.754 0 0 0 0 6.25v11.5a3.754 3.754 0 0 0 3.75 3.75h10z"/>
    <path d="M8.75 14.5c1.379 0 2.5-1.121 2.5-2.5s-1.121-2.5-2.5-2.5a2.503 2.503 0 0 0-2.5 2.5c0 1.379 1.121 2.5 2.5 2.5"/>
  </g>
</svg>
