<svg class="a8c37x1j ms05siws l3qrxjdp b7h9ocf4 g28tu32o" fill="currentColor" height="28" width="28"><path d="m25.825 12.29-.004-.004-10.794-9.349c-.275-.262-.635-.41-1.038-.416-.381.006-.741.154-.988.391L2.175 12.29c-.419.368-.546.955-.307 1.469.211.456.699.72 1.201.72H5v9.25c0 .966.784 1.75 1.75 1.75H11c.552 0 1-.448 1-1v-6.17c0-.183.148-.33.33-.33h3.34c.182 0 .33.147.33.33v6.17c0 .552.448 1 1 1h4.25c.967 0 1.75-.784 1.75-1.75v-9.25h1.931c.502 0 .99-.264 1.201-.72.239-.514.112-1.101-.307-1.469"/></svg>