<svg class="a8c37x1j ms05siws l3qrxjdp b7h9ocf4 py1f6qlh" fill="currentColor" height="28" width="28"><path d="M17.5 23.75h4.25c.414 0 .75-.336.75-.75v-9h.031c-.167-.083-.325-.185-.47-.306l-.401-.335c-.093-.076-.227-.076-.32.001l-.164.137c-.585.486-1.321.753-2.081.753h-.226c-.755 0-1.487-.263-2.069-.744l-.184-.152c-.093-.076-.226-.076-.318 0l-.185.153c-.583.48-1.315.743-2.069.743h-.137c-.745 0-1.468-.256-2.046-.725l-.216-.175c-.093-.075-.226-.074-.317.002l-.173.145c-.585.487-1.321.753-2.081.753h-.178c-.753 0-1.482-.261-2.064-.739l-.194-.16c-.093-.076-.225-.076-.318 0l-.471.388c-.123.101-.257.189-.397.261H5.5v9c0 .414.336.75.75.75h4.25V17.5c0-.69.56-1.25 1.25-1.25h4.5c.69 0 1.25.56 1.25 1.25v6.25Zm-13.827-15h20.654c-.027-.09-.056-.179-.089-.267l-1.151-3.128c-.264-.667-.909-1.105-1.626-1.105H6.54c-.718 0-1.363.438-1.621 1.088L3.762 8.483c-.033.088-.062.177-.089.267Zm20.827 1.5h-21V12c0 .414.336.75.75.75h.171c.174 0 .342-.06.476-.17l.471-.387c.645-.531 1.577-.531 2.222 0l.194.159c.313.257.706.398 1.112.398h.178c.409 0 .806-.143 1.12-.405l.174-.145c.642-.535 1.573-.541 2.221-.015l.216.174c.312.253.701.391 1.102.391h.137c.406 0 .8-.142 1.114-.4l.185-.153c.646-.534 1.581-.534 2.228 0l.184.153c.313.258.707.4 1.114.4h.226c.409 0 .806-.144 1.121-.406l.164-.136c.648-.542 1.592-.542 2.24-.001l.402.335c.161.134.365.208.576.208.499 0 .902-.403.902-.9v-1.6Zm-.5 3.967V23c0 1.243-1.007 2.25-2.25 2.25H6.25C5.007 25.25 4 24.243 4 23v-8.764C2.875 14.112 2 13.158 2 12V9.951c0-.679.12-1.351.354-1.987l1.164-3.162C4.01 3.563 5.207 2.75 6.54 2.75h14.921c1.332 0 2.529.813 3.027 2.069l1.158 3.145C25.88 8.6 26 9.272 26 9.951v1.899c0 1.189-.865 2.176-2 2.367Zm-8 9.533v-6h-4v6h4Z"/></svg>