<?xml version="1.0" standalone="no"?>
<!DOCTYPE svg PUBLIC "-//W3C//DTD SVG 20010904//EN"
 "http://www.w3.org/TR/2001/REC-SVG-20010904/DTD/svg10.dtd">
<svg version="1.0" xmlns="http://www.w3.org/2000/svg"
 width="604.000000pt" height="604.000000pt" viewBox="0 0 604.000000 604.000000"
 preserveAspectRatio="xMidYMid meet">

<g transform="translate(0.000000,604.000000) scale(0.100000,-0.100000)"
fill="#000000" stroke="none">
<path d="M1814 5984 c-335 -45 -683 -191 -966 -405 -107 -80 -307 -280 -387
-387 -224 -297 -365 -644 -411 -1012 -15 -121 -12 -398 5 -518 51 -359 184
-680 403 -972 69 -92 243 -273 337 -350 288 -235 637 -389 1015 -446 140 -22
422 -24 560 -5 324 45 673 183 919 364 l53 39 1112 -1109 c1237 -1235 1153
-1161 1281 -1151 103 9 188 65 240 160 26 45 30 64 30 128 0 53 -6 87 -19 115
-13 27 -374 396 -1129 1151 l-1109 1111 45 62 c136 185 254 445 317 701 41
169 54 284 54 480 0 332 -63 605 -209 905 -266 548 -772 955 -1370 1101 -55
13 -151 31 -213 39 -139 18 -420 18 -558 -1z m608 -523 c327 -71 623 -243 841
-489 426 -481 514 -1170 221 -1742 -77 -151 -161 -266 -284 -390 -658 -660
-1734 -596 -2321 138 -162 203 -275 466 -315 734 -22 150 -15 411 15 546 67
304 206 558 426 777 242 243 519 385 860 441 122 20 433 12 557 -15z"/>
</g>
</svg>
