<svg class="a8c37x1j ms05siws l3qrxjdp b7h9ocf4 py1f6qlh" fill="currentColor" height="28" width="28"><path d="M8.75 25.25c-.414 0-.75-.336-.75-.75s.336-.75.75-.75h10.5c.414 0 .75.336.75.75s-.336.75-.75.75H8.75Zm8.413-12.404-5.108 3.077c-.464.279-1.055-.054-1.055-.596V9.172c0-.541.591-.875 1.055-.596l5.108 3.078c.449.27.449.921 0 1.192Zm4.587 7.404c1.242 0 2.25-1.008 2.25-2.25V6.5c0-1.242-1.008-2.25-2.25-2.25H6.25C5.008 4.25 4 5.258 4 6.5V18c0 1.242 1.008 2.25 2.25 2.25h15.5Zm0 1.5H6.25c-2.071 0-3.75-1.679-3.75-3.75V6.5c0-2.071 1.679-3.75 3.75-3.75h15.5c2.071 0 3.75 1.679 3.75 3.75V18c0 2.071-1.679 3.75-3.75 3.75Z"/></svg>